<?xml version="1.0" encoding="UTF-8" standalone="no"?>
<svg xmlns:rdf="http://www.w3.org/1999/02/22-rdf-syntax-ns#" xmlns="http://www.w3.org/2000/svg" height="292px" width="502px" xmlns:cc="http://creativecommons.org/ns#" xmlns:xlink="http://www.w3.org/1999/xlink" xmlns:dc="http://purl.org/dc/elements/1.1/">
<title>Stream 3D: river valley and water table</title>
<desc xmlns:ian_image_library="http://ian.umces.edu/imagelibrary/">
      <ian_image_library:title>Stream 3D: river valley and water table</ian_image_library:title>
      <ian_image_library:descr>Illustration of a stream with river valley and water table</ian_image_library:descr>
      <ian_image_library:scene>
		<ian_image_library:contains>symbol,vector,illustration,diagram,template,base,ecosystem,aquatic,freshwater river,valley,water,table,stream,springs</ian_image_library:contains>
        <ian_image_library:when>2008-11-07</ian_image_library:when>
	  </ian_image_library:scene>
   </desc>
    <metadata
		id="metadata-iil-b1d7a075129f0a54a56624e0d1a0c868">
      <rdf:RDF>
      <cc:Work
         rdf:about="">
        <dc:format>image/svg+xml</dc:format>
        <dc:type
           rdf:resource="http://purl.org/dc/dcmitype/StillImage" />
        <cc:license
           rdf:resource="http://creativecommons.org/licenses/by-sa/3.0/" />
        <dc:title>Stream 3D: river valley and water table</dc:title>
		<dc:date>2008-11-07</dc:date>
        <dc:creator>
			<cc:Agent>
				<dc:title>Tracey Saxby</dc:title>
			</cc:Agent>
		</dc:creator>
		<dc:rights>
          <cc:Agent>
            <dc:title>Tracey Saxby, Integration and Application Network</dc:title>
          </cc:Agent>
        </dc:rights>
        <dc:publisher>
          <cc:Agent>
            <dc:title>Integration and Application Network</dc:title>
          </cc:Agent>
        </dc:publisher>
		<dc:identifier>http://ian.umces.edu/imagelibrary/displayimage-6430.html</dc:identifier>
        <dc:source>http://ian.umces.edu/imagelibrary/displayimage-6430.html</dc:source>
        <dc:language>en-US</dc:language>
        <dc:subject>
          <rdf:Bag>
            <rdf:li>symbol,vector,illustration,diagram,template,base,ecosystem,aquatic,freshwater river,valley,water,table,stream,springs</rdf:li>
          </rdf:Bag>
        </dc:subject>
        <dc:coverage></dc:coverage>
        <dc:description>Illustration of a stream with river valley and water table</dc:description>
        <dc:contributor>
          <cc:Agent>
            <dc:title></dc:title>
          </cc:Agent>
        </dc:contributor>
      </cc:Work>
      <cc:License
         rdf:about="http://creativecommons.org/licenses/by-sa/3.0/">
        <cc:permits
           rdf:resource="http://creativecommons.org/ns#Reproduction" />
        <cc:permits
           rdf:resource="http://creativecommons.org/ns#Distribution" />
        <cc:requires
           rdf:resource="http://creativecommons.org/ns#Notice" />
        <cc:requires
           rdf:resource="http://creativecommons.org/ns#Attribution" />
        <cc:permits
           rdf:resource="http://creativecommons.org/ns#DerivativeWorks" />
        <cc:requires
           rdf:resource="http://creativecommons.org/ns#ShareAlike" />
      </cc:License>
    </rdf:RDF>
  </metadata>
	
<defs>
</defs>
<linearGradient id="ian_symbols_859e74e9c8efc1b4dd0da4807377fc18" gradientUnits="userSpaceOnUse" x1="188.5542" y1="290.0762" x2="188.5542" y2="152.3818">
	<stop  offset="0" style="stop-color:#967D5F"/>
	<stop  offset="1" style="stop-color:#D7BD9C"/>
</linearGradient>
<polygon fill="url(#ian_symbols_859e74e9c8efc1b4dd0da4807377fc18)" stroke="#967D5F" stroke-width="0.5" points="376.493,290.076 0.615,254.702 0.615,152.382 
	376.493,187.753 "/>
<linearGradient id="ian_symbols_f971faf5681c30c4899e76615bfa73bb" gradientUnits="userSpaceOnUse" x1="280.6445" y1="59.0332" x2="280.6445" y2="216.8457">
	<stop  offset="0" style="stop-color:#53A6CB"/>
	<stop  offset="1" style="stop-color:#77B7D4"/>
</linearGradient>
<path fill="url(#ian_symbols_f971faf5681c30c4899e76615bfa73bb)" d="M399.988,89.26c0,0-57.422,35.54-59.631,35.827c-2.211,0.286-5.153-1.406-5.153-1.406
	c0.031-0.023-6.17,1.408-5.955,1.406c-2.946,0.02-5.588-1.406-5.588-1.406s-1.405,1.119-3.613,1.406
	c-2.209,0.286-3.98-1.406-3.98-1.406s-3.312,1.119-4.784,1.406c-1.472,0.286-4.852-1.406-4.852-1.406s-2.945,1.384-4.785,1.406
	c-1.84,0.02-4.048-1.406-4.048-1.406s-1.771,1.119-3.98,1.406c-2.207,0.286-4.352-1.406-4.352-1.406s-3.376,1.119-5.584,1.406
	c-0.24,0.032-0.481,0.034-0.719,0.023l-98.865-66.077l-71.011,47.632l73.283,94.131c0,0,4.582,16.726,16.808,16.028
	c12.224-0.702,18.938-12.541,18.938-12.541l159.448-54.658L448.2,81.029C447.862,80.803,399.988,89.26,399.988,89.26z"/>
<path fill="none" stroke="#0083B7" stroke-width="0.5" d="M399.988,89.26c0,0-57.422,35.54-59.631,35.827
	c-2.211,0.286-5.153-1.406-5.153-1.406c0.031-0.023-6.17,1.408-5.955,1.406c-2.946,0.02-5.588-1.406-5.588-1.406
	s-1.405,1.119-3.613,1.406c-2.209,0.286-3.98-1.406-3.98-1.406s-3.312,1.119-4.784,1.406c-1.472,0.286-4.852-1.406-4.852-1.406
	s-2.945,1.384-4.785,1.406c-1.84,0.02-4.048-1.406-4.048-1.406s-1.771,1.119-3.98,1.406c-2.207,0.286-4.352-1.406-4.352-1.406
	s-3.376,1.119-5.584,1.406c-0.24,0.032-0.481,0.034-0.719,0.023l-98.865-66.077l-71.011,47.632l73.283,94.131
	c0,0,4.582,16.726,16.808,16.028c12.224-0.702,18.938-12.541,18.938-12.541l159.448-54.658L448.2,81.029
	C447.862,80.803,399.988,89.26,399.988,89.26z"/>
<path fill="none" stroke="#0083B7" stroke-width="0.5" d="M225.87,203.553c-0.341-0.226-0.528-0.399-0.528-0.399
	s-2.574,1.119-4.784,1.404c-2.21,0.287-5.155-1.404-5.155-1.404s-1.838,1.385-4.783,1.404c-2.943,0.021-4.416-1.404-4.416-1.404
	s-2.578,1.119-4.784,1.404c-2.208,0.287-5.152-1.404-5.152-1.404s-3.314,1.119-4.784,1.404c-1.472,0.287-3.681-1.404-3.681-1.404"/>
<linearGradient id="ian_symbols_f4c7c312c50c2774c504a72949279177" gradientUnits="userSpaceOnUse" x1="93.8364" y1="203.1016" x2="93.8364" y2="46.2622">
	<stop  offset="0" style="stop-color:#967D5F"/>
	<stop  offset="0.7247" style="stop-color:#C4A989"/>
</linearGradient>
<path fill="url(#ian_symbols_f4c7c312c50c2774c504a72949279177)" stroke="#967D5F" stroke-width="0.5" d="M187.059,203.102c0,0-58.847-13.92-80.162-16.378
	c-21.315-2.457-44.333-14.547-60.186-17.297c-15.854-2.748-46.097-9.053-46.097-9.053V46.262c0,0,44.737,22.861,54.774,33.23
	c10.033,10.367,25.366,38.003,37.141,42.943c11.774,4.937,24.73,19.518,34.815,29.079c10.084,9.563,17.804,23.567,27.625,29.61
	C164.792,187.166,187.059,203.102,187.059,203.102z"/>
<path fill="none" stroke="#0083B7" stroke-width="0.5" stroke-dasharray="3.5278,3.5278" d="M187.059,203.102
	c0,0-58.847-13.92-80.162-16.378c-21.315-2.457-44.333-14.547-60.186-17.297c-15.854-2.748-46.097-9.053-46.097-9.053"/>
<radialGradient id="ian_symbols_219668ed2baf37f4bdde17eb8eae3c70" cx="136.2925" cy="101.6895" r="126.3005" gradientTransform="matrix(0.9936 0 0 1 11.288 0)" gradientUnits="userSpaceOnUse">
	<stop  offset="0.0056" style="stop-color:#9EB37E"/>
	<stop  offset="1" style="stop-color:#859960"/>
</radialGradient>
<path fill="url(#ian_symbols_219668ed2baf37f4bdde17eb8eae3c70)" stroke="#879B63" stroke-width="0.5" d="M121.286,0.277c0,0,23.649,14.607,33.684,24.974
	c10.035,10.37,17.167,20.317,28.942,25.256c11.775,4.939,50.504,28.953,60.587,38.515c9.521,9.026,37.167,29.118,47.543,35.504
	c5.362,3.299-18.477,1.66-46.545,21.973c-2.697,1.954-7.228,14.748-11.26,15.903c-7.133,0.666-9.631-3.516-9.749-6.803
	c-0.14-3.892,4.383-9.022,2.143-14.718c-1.792-4.552-11.515-11.82-12.66-15.568c-1.143-3.749,5.691-11.588,1.904-15.294
	c-3.788-3.705-7.417-4.255-9.311-9.394c-0.632-1.706,3.431-4.404,4.04-6.26c0.611-1.865-0.129-3.217-1.069-4.032
	c-0.692-0.604-1.013-0.373-4.08-1.275c-3.067-0.902-2.77-2.289-4.869-1.413c-2.89,1.206,4.319,2.681,5.624,3.117
	c1.563,0.521,3.255,0.814,3.388,1.191c0.222,0.621,0.248,1.407-0.108,2.413c-0.498,1.412-4.635,3.823-4.354,5.582
	c0.191,1.193,0.681,2.328,1.355,3.397c0.073,0.116-5.512-2.8-11.841-2.978c-0.136-0.003,1.478-4.935-0.335-7.12
	c-1.486-1.786-5.257-1.739-5.619-4.249c-0.235-1.631,1.703-3.346,2.565-5.055c1.17-2.321,0.173-3.455-0.584-5.525
	c-0.873-2.383-6.3-1.172-6.78-3.235c-0.326-1.397-0.169-2.674,0.193-3.769c0.79-2.39,3.9-5.942,2.499-6.153
	c-1.402-0.212-2.729,4.82-3.151,5.536c-0.743,1.256-1.274,2.809-1.072,4.545c0.334,2.841,6.999,2.631,7.966,5.932
	c0.75,2.565-4.835,5.462-4.83,8.235c0.007,2.995,5.817,3.486,6.918,5.615c1.135,2.187-0.097,4.79-0.238,4.83
	c-2.791,0.755-7.831,2.861-10.027,2.038c-3.047-1.142,2.979-7.778,0.079-8.797c-2.637-0.926-5.304,0.234-7.297-0.694
	c-1.442-0.675-2.994-0.729-3.438-1.801c-0.39-0.941,6.655-5.026,6.524-6.13c-0.132-1.104-1.869-0.062-3.085,0.807
	c-1.216,0.869-4.464,2.734-4.736,3.972c-0.274,1.236-0.079,2.699,1.879,3.716c2.267,1.179,5.186,0.09,8.396,1.369
	c3.124,1.245-2.849,7.367,0.49,8.776c3.391,1.433,9.015-1.233,13.405-0.689c8.283,1.022,15.16,4.407,15.394,4.627
	c2.893,2.707,4.898,4.718,5.021,5.821c-0.529,4.92-3.127,9.027-3.75,11.423c0.627,2.314,2.17,4.487,3.992,6.538
	c0.051,0.058-3.317-2.592-7.252-0.902c-3.007,1.292-8.416-0.67-10.771-0.869c-3.71,0,0.617-6.416-6.792-6.25
	c-6.158,0.717-10.588,3.5-15.687,4.28c-5.1,0.782-2.268-6.822-7.952-7.844c-0.708-0.129-2.011,0.063-3.625,0.321
	c-0.351,0.057-5.82,0.701-5.512-1.625c0.161-1.22,1.914-3.512,3.769-5.753c0.857-1.034,2.617-4.715,4.225-5.986
	c1.871-1.479,3.536-0.533,3.329-1.341c-0.215-0.843-2.496-1.06-4.454,0.2c-1.528,0.983-2.859,3.325-2.854,3.96
	c0.008,1.086-4.901,5.869-5.248,7.128c-1.038,3.774,1.507,4.126,1.247,4.144c-1.74,0.125-3.503,0.106-5.093-0.239
	c-3.611-0.78-6.449-4.316-9.704-5.354c-4.548-1.45-8.023,2.719-9.761,1.677c-1.737-1.042,4.855-4.316,3.209-5.199
	c-1.646-0.882-4.214,2.562-4.214,2.562s-2.658,4.673,1.857,4.361c4.517-0.311,4.186-2.801,7.847-2.537
	c2.956,0.215,6.372,5.561,9.707,6.333c6.941,1.607,13.533-0.878,14.905-0.471c2.852,0.845,1.501,7.033,6.999,7.298
	c5.496,0.267,11.203-3.528,17.413-3.942c3.919-0.256-0.141,6.086,3.296,6.273c4.324,0.234,9.535,2.634,13.254,1.735
	c5.28-1.278,11.49,1.789,11.651,1.949c2.539,2.518,4.824,4.839,5.362,6.999c1.207,4.862-1.86,11.162-2.767,14.575
	c-0.907,3.414,7.019,8.428,6.64,11.088c-0.38,2.664-4.186,5.371-6.871,8.091c-13.214,13.382-34.122,27.51-34.122,27.51
	s-22.267-15.936-32.089-21.978c-9.821-6.043-17.541-20.047-27.625-29.61c-10.085-9.562-23.041-24.143-34.815-29.079
	c-11.775-4.939-27.108-32.576-37.141-42.943C45.352,69.123,0.615,46.262,0.615,46.262L121.286,0.277z"/>
<path fill="none" stroke="#0083B7" stroke-width="0.5" d="M292.712,125.094c1.698,2.612-20.898,2.362-47.214,21.406
	c-2.697,1.954-7.228,14.748-11.26,15.903c-7.133,0.666-9.631-3.516-9.749-6.803c-0.14-3.892,4.383-9.022,2.143-14.718
	c-1.792-4.552-11.515-11.82-12.66-15.568c-1.143-3.749,5.691-11.588,1.904-15.294c-3.788-3.705-7.417-4.255-9.311-9.394
	c-0.632-1.706,3.431-4.404,4.04-6.26c0.611-1.865-0.129-3.217-1.069-4.032c-0.692-0.604-1.013-0.373-4.08-1.275
	c-3.067-0.902-2.77-2.289-4.869-1.413c-2.89,1.206,4.319,2.681,5.624,3.117c1.563,0.521,3.255,0.814,3.388,1.191
	c0.222,0.621,0.248,1.407-0.108,2.413c-0.498,1.412-4.635,3.823-4.354,5.582c0.191,1.193,0.681,2.328,1.355,3.397
	c0.073,0.116-5.512-2.8-11.841-2.978c-0.136-0.003,1.478-4.935-0.335-7.12c-1.486-1.786-5.257-1.739-5.619-4.249
	c-0.235-1.631,1.703-3.346,2.565-5.055c1.17-2.321,0.173-3.455-0.584-5.525c-0.873-2.383-6.3-1.172-6.78-3.235
	c-0.326-1.397-0.169-2.674,0.193-3.769c0.79-2.39,3.9-5.942,2.499-6.153c-1.402-0.212-2.729,4.82-3.151,5.536
	c-0.743,1.256-1.274,2.809-1.072,4.545c0.334,2.841,6.999,2.631,7.966,5.932c0.75,2.565-4.835,5.462-4.83,8.235
	c0.007,2.995,5.817,3.486,6.918,5.615c1.135,2.187-0.097,4.79-0.238,4.83c-2.791,0.755-7.831,2.861-10.027,2.038
	c-3.047-1.142,2.979-7.778,0.079-8.797c-2.637-0.926-5.304,0.234-7.297-0.694c-1.442-0.675-2.994-0.729-3.438-1.801
	c-0.39-0.941,6.655-5.026,6.524-6.13c-0.132-1.104-1.869-0.062-3.085,0.807c-1.216,0.869-4.464,2.734-4.736,3.972
	c-0.274,1.236-0.079,2.699,1.879,3.716c2.267,1.179,5.186,0.09,8.396,1.369c3.124,1.245-2.849,7.367,0.49,8.776
	c3.391,1.433,9.015-1.233,13.405-0.689c8.283,1.022,15.16,4.407,15.394,4.627c2.893,2.707,4.898,4.718,5.021,5.821
	c-0.529,4.92-3.127,9.027-3.75,11.423c0.627,2.314,2.17,4.487,3.992,6.538c0.051,0.058-3.317-2.592-7.252-0.902
	c-3.007,1.292-8.416-0.67-10.771-0.869c-3.71,0,0.617-6.416-6.792-6.25c-6.158,0.717-10.588,3.5-15.687,4.28
	c-5.1,0.782-2.268-6.822-7.952-7.844c-0.708-0.129-2.011,0.063-3.625,0.321c-0.351,0.057-5.82,0.701-5.512-1.625
	c0.161-1.22,1.914-3.512,3.769-5.753c0.857-1.034,2.617-4.715,4.225-5.986c1.871-1.479,3.536-0.533,3.329-1.341
	c-0.215-0.843-2.496-1.06-4.454,0.2c-1.528,0.983-2.859,3.325-2.854,3.96c0.008,1.086-4.901,5.869-5.248,7.128
	c-1.038,3.774,1.507,4.126,1.247,4.144c-1.74,0.125-3.503,0.106-5.093-0.239c-3.611-0.78-6.449-4.316-9.704-5.354
	c-4.548-1.45-8.023,2.719-9.761,1.677c-1.737-1.042,4.855-4.316,3.209-5.199c-1.646-0.882-4.214,2.562-4.214,2.562
	s-2.658,4.673,1.857,4.361c4.517-0.311,4.186-2.801,7.847-2.537c2.956,0.215,6.372,5.561,9.707,6.333
	c6.941,1.607,13.533-0.878,14.905-0.471c2.852,0.845,1.501,7.033,6.999,7.298c5.496,0.267,11.203-3.528,17.413-3.942
	c3.919-0.256-0.141,6.086,3.296,6.273c4.324,0.234,9.535,2.634,13.254,1.735c5.28-1.278,11.49,1.789,11.651,1.949
	c2.539,2.518,4.824,4.839,5.362,6.999c1.207,4.862-1.86,11.162-2.767,14.575c-0.907,3.414,7.019,8.428,6.64,11.088
	c-0.38,2.664-4.186,5.371-6.871,8.091c-13.214,13.382-34.122,27.51-34.122,27.51"/>
<linearGradient id="ian_symbols_8b2c5161210318d4491b37e57152dd06" gradientUnits="userSpaceOnUse" x1="50.4204" y1="290.0762" x2="50.4204" y2="81.6343" gradientTransform="matrix(-0.3333 0 0 1 454.7726 0)">
	<stop  offset="0" style="stop-color:#967D5F"/>
	<stop  offset="1" style="stop-color:#D7BD9C"/>
</linearGradient>
<polygon fill="url(#ian_symbols_8b2c5161210318d4491b37e57152dd06)" stroke="#967D5F" stroke-width="0.5" points="375.321,290.076 500.615,195.746 500.615,81.634 
	375.321,175.963 "/>
<linearGradient id="ian_symbols_08106d0284cbb3b4113700f6bd0f6444" gradientUnits="userSpaceOnUse" x1="299.168" y1="203.7324" x2="299.168" y2="148.8037">
	<stop  offset="0" style="stop-color:#967D5F"/>
	<stop  offset="0.7247" style="stop-color:#C4A989"/>
</linearGradient>
<path fill="url(#ian_symbols_08106d0284cbb3b4113700f6bd0f6444)" stroke="#967D5F" stroke-width="0.5" d="M248.063,186.035c12.927-1.769,19.4-9.586,27.597-12.924
	c8.195-3.338,16.349-4.437,25.135-6.063c8.786-1.624,11.923-0.716,23.932-1.168c12.008-0.456,15.013-6.507,25.658-12.179
	c10.646-5.671,24.938-4.858,24.938-4.858v42.188c0,0-25.732,1.277-44.307-1.577c-18.577-2.854-43.602,3.132-51.896,2.584
	c-8.295-0.547-17.539-0.283-33.816,5.219c-15.208,5.143-22.287,6.475-22.287,6.475S235.138,187.804,248.063,186.035z"/>
<path fill="none" stroke="#0083B7" stroke-width="0.5" stroke-dasharray="3.5278,3.5278" d="M375.321,191.032
	c0,0-25.732,1.277-44.307-1.577c-18.577-2.854-43.602,3.132-51.896,2.584c-8.295-0.547-17.539-0.283-33.816,5.219
	c-15.208,5.143-22.287,6.475-22.287,6.475"/>
<linearGradient id="ian_symbols_4134178810b41194d59193ed31c7dc80" gradientUnits="userSpaceOnUse" x1="50.4204" y1="191.0322" x2="50.4204" y2="55.6958" gradientTransform="matrix(-0.3333 0 0 1 454.7726 0)">
	<stop  offset="0" style="stop-color:#967D5F"/>
	<stop  offset="0.7247" style="stop-color:#C4A989"/>
</linearGradient>
<path fill="url(#ian_symbols_4134178810b41194d59193ed31c7dc80)" stroke="#967D5F" stroke-width="0.5" d="M375.321,191.032c0,0,10.247-9.968,20.83-17.257
	c10.585-7.293,13.477-15.313,26.433-27.247c12.953-11.933,41.732-33.517,53.987-38.668c12.254-5.151,24.044-24.128,24.044-24.128
	V55.695c0,0-26.262,15.042-34.148,23.252c-7.886,8.21-11.431,15.513-22.619,21.281c-11.19,5.771-21.918,15.22-30.956,20.642
	c-9.036,5.42-13.191,13.75-19.754,20.455c-6.564,6.707-17.816,7.519-17.816,7.519V191.032z"/>
<path fill="none" stroke="#0083B7" stroke-width="0.5" stroke-dasharray="3.5278,3.5278" d="M375.321,191.032
	c0,0,10.247-9.968,20.83-17.257c10.585-7.293,13.477-15.313,26.433-27.247c12.953-11.933,41.732-33.517,53.987-38.668
	c12.254-5.151,24.044-24.128,24.044-24.128"/>
<radialGradient id="ian_symbols_7ae13230fb0cd22459ed39315b46840a" cx="361.6348" cy="130.1782" r="111.3424" gradientUnits="userSpaceOnUse">
	<stop  offset="0.0056" style="stop-color:#96AA77"/>
	<stop  offset="1" style="stop-color:#7F9359"/>
</radialGradient>
<path fill="url(#ian_symbols_7ae13230fb0cd22459ed39315b46840a)" stroke="#879B63" stroke-width="0.5" d="M312.186,133.978c0.399,1.577,2.811,1.91,4.312,1.818
	c2.454-0.152,4.299-0.934,6.369-2.174c2.102-1.256,6.557-4.445,9.31-6.339c6.482-4.461,3.527,5.879,9.407,6.663
	c4.65,0.621,7.852-7.081,12.152-10.583c4.302-3.502,5.426,9.9,9.799,7.056c3.905-2.539,5.486-11.368,8.624-12.936
	c3.135-1.567,4.499-4.407,5.967-7.604c0.843-1.832,2.349-3.308,3.833-4.675c0,0,8.861-9.66,16.469-10.867
	c3.219-0.51,6.57-0.389,9.792-0.852c4.086-0.585,4.996,2.418,7.144-0.696c2.625-3.809,6.297-6.117,10.886-6.666
	c1.732-0.207,2.994-0.286,4.705-0.086c1.862,0.218,3.444,0.88,0.785,1.645c-3.282,0.942-6.59,0.767-9.8,2.08
	c-3.134,1.282-4.189,4.233-6.285,6.448c-2.103,2.224-4.018-1.52-7.052-0.666c-2.857,0.804-5.932-0.89-8.223,1.557
	c0.129,1.538,1.885,2.211,2.831,2.65c1.632,0.755,0.889,1.757,1.46,3.25c1.039,2.719,4.09,2.215,5.922,4.293
	c1.057,1.2,1.36,2.223,0.86,3.614c-0.575,1.596-1.771,2.026-1.989-0.087c-0.139-1.355,0.682-1.806-0.745-2.85
	c-0.959-0.702-2.096-0.475-3.242-0.756c-3.335-0.819-1.379-4.096-3.605-5.714c-1.291-0.939-2.588,0.043-3.458-1.276
	c-0.572-0.868-0.157-2.032-1.245-2.652c-2.716-1.553-2.658,1.005-4.234,1.881c-3.528,1.959-8.434,5.921-9.319,6.771
	c-1.346,1.289-2.689,2.867-3.715,4.347c-1.794,2.588-0.887,5.131-3.43,7.306c0.732,1.78,3.528,5.879,7.066,3.807
	c2.343-1.455,2.199-2.642,3.496-3.021c2.282-0.666,3.799-0.277,5.511,1.174c1.487,1.261,0.503,6.41-0.786,6.664
	c-1.821,0.358-0.485-4.098-1.959-5.487c-1.306-1.23-3.135,3.919-8.231,3.919s-4.83-3.729-7.84-4.704
	c-1.301-0.421-7.046,12.016-10.975,14.895c-3.93,2.878-4.703-10.768-9.016-7.447s-3.921,8.624-12.543,9.407
	c-8.623,0.784-4.313-12.935-12.088-3.894l1.896,1.15c2.048,0.512,2.737,1.281,4.311,2.744c1.668,1.55,1.266,3.756,2.047,5.794
	c1.496,3.902,4.786,4.125,8.546,2.743c2.659-0.978,5.119-3.225,7.831-4.225c2.938-1.083,6.665-3.136,9.408-2.353
	c2.742,0.784,3.144,0.206,5.387,2.461c0.83,0.832,2.635,3.401,1.391,4.699c-1.133,1.184-2.133-1.59-2.958-2.447
	c-2.85-2.96-3.044-3.325-6.97-2.043c-2.841,0.926-5.452,1.702-8.117,3.125c-2.041,1.088-4.012,2.663-6.283,3.327
	c-4.09,1.195-7.226,1.563-9.997-2.069c-1.449-1.9-1.341-4.515-2.539-6.573c-0.53-0.91-1.133-2.285-2.114-2.781
	c-0.983-0.495-4.254-2.01-4.254-2.01c-3.919,2.352-8.411,3.698-11.367,4.704c-1.601,0.545-6.634-0.038-6.271-3.274l-0.109-0.276
	c-14.284,5.762-22.197,5.306-34.452,12.156c-11.313,6.325-12.223,17.383-22.966,27.571c-3.427,3.249-17.249,11.02-22.759,16.346
	c-8.271,7.987-5.749,12.24-5.749,12.24s11.042-11.212,24.069-12.98c13.027-1.768,20.719-14.299,28.98-17.638
	c8.259-3.34,16.474-4.44,25.327-6.063c8.854-1.624,12.015-0.716,24.115-1.171c12.101-0.453,15.131-6.506,25.857-12.178
	c10.728-5.669,25.129-4.859,25.129-4.859s10.08-0.81,16.645-7.516c6.563-6.707,10.718-15.035,19.754-20.458
	c9.038-5.42,19.766-14.87,30.956-20.64c11.188-5.77,14.733-13.073,22.619-21.281c7.887-8.211,34.148-23.253,34.148-23.253
	s-35.327,1.615-69.799,13.941c-23.023,8.233-44.86,22.56-61.524,31.826c-7.021,3.906-24.18,7.323-36.558,18.029
	c-6.581,5.692-10.611,9.9-17.865,13.328L312.186,133.978z"/>
<path fill="none" stroke="#0083B7" stroke-width="0.5" d="M327.061,124.945c-3.787,3.293-7.238,5.999-12.191,8.34l-2.684,0.692
	c0.399,1.577,2.811,1.91,4.312,1.818c2.454-0.152,4.299-0.934,6.369-2.174c2.102-1.256,6.557-4.445,9.31-6.339
	c6.482-4.461,3.527,5.879,9.407,6.663c4.65,0.621,7.852-7.081,12.152-10.583c4.302-3.502,5.426,9.9,9.799,7.056
	c3.905-2.539,5.486-11.368,8.624-12.936c3.135-1.567,4.499-4.407,5.967-7.604c0.843-1.832,2.349-3.308,3.833-4.675
	c0,0,8.861-9.66,16.469-10.867c3.219-0.51,6.57-0.389,9.792-0.852c4.086-0.585,4.996,2.418,7.144-0.696
	c2.625-3.809,6.297-6.117,10.886-6.666c1.732-0.207,2.994-0.286,4.705-0.086c1.862,0.218,3.444,0.88,0.785,1.645
	c-3.282,0.942-6.59,0.767-9.8,2.08c-3.134,1.282-4.189,4.233-6.285,6.448c-2.103,2.224-4.018-1.52-7.052-0.666
	c-2.857,0.804-5.932-0.89-8.223,1.557c0.129,1.538,1.885,2.211,2.831,2.65c1.632,0.755,0.889,1.757,1.46,3.25
	c1.039,2.719,4.09,2.215,5.922,4.293c1.057,1.2,1.36,2.223,0.86,3.614c-0.575,1.596-1.771,2.026-1.989-0.087
	c-0.139-1.355,0.682-1.806-0.745-2.85c-0.959-0.702-2.096-0.475-3.242-0.756c-3.335-0.819-1.379-4.096-3.605-5.714
	c-1.291-0.939-2.588,0.043-3.458-1.276c-0.572-0.868-0.157-2.032-1.245-2.652c-2.716-1.553-2.658,1.005-4.234,1.881
	c-3.528,1.959-8.434,5.921-9.319,6.771c-1.346,1.289-2.689,2.867-3.715,4.347c-1.794,2.588-0.887,5.131-3.43,7.306
	c0.732,1.78,3.528,5.879,7.066,3.807c2.343-1.455,2.199-2.642,3.496-3.021c2.282-0.666,3.799-0.277,5.511,1.174
	c1.487,1.261,0.503,6.41-0.786,6.664c-1.821,0.358-0.485-4.098-1.959-5.487c-1.306-1.23-3.135,3.919-8.231,3.919
	s-4.83-3.729-7.84-4.704c-1.301-0.421-7.046,12.016-10.975,14.895c-3.93,2.878-4.703-10.768-9.016-7.447s-3.921,8.624-12.543,9.407
	c-8.623,0.784-4.313-12.935-12.088-3.894l1.896,1.15c2.048,0.512,2.737,1.281,4.311,2.744c1.668,1.55,1.266,3.756,2.047,5.794
	c1.496,3.902,4.786,4.125,8.546,2.743c2.659-0.978,5.119-3.225,7.831-4.225c2.938-1.083,6.665-3.136,9.408-2.353
	c2.742,0.784,3.144,0.206,5.387,2.461c0.83,0.832,2.635,3.401,1.391,4.699c-1.133,1.184-2.133-1.59-2.958-2.447
	c-2.85-2.96-3.044-3.325-6.97-2.043c-2.841,0.926-5.452,1.702-8.117,3.125c-2.041,1.088-4.012,2.663-6.283,3.327
	c-4.09,1.195-7.226,1.563-9.997-2.069c-1.449-1.9-1.341-4.515-2.539-6.573c-0.53-0.91-1.133-2.285-2.114-2.781
	c-0.983-0.495-4.254-2.01-4.254-2.01c-3.919,2.352-8.411,3.698-11.367,4.704c-1.601,0.545-6.634-0.038-6.271-3.274l-0.109-0.276
	c-14.284,5.762-22.197,5.306-34.452,12.156c-11.313,6.325-12.223,17.383-22.966,27.571c-3.427,3.249-17.249,11.02-22.759,16.346
	c-8.271,7.987-5.749,12.24-5.749,12.24"/>
</svg>
