<?xml version="1.0" encoding="utf-8"?>
<!-- Generator: Adobe Illustrator 16.0.3, SVG Export Plug-In . SVG Version: 6.00 Build 0)  -->
<!DOCTYPE svg PUBLIC "-//W3C//DTD SVG 1.1//EN" "http://www.w3.org/Graphics/SVG/1.1/DTD/svg11.dtd">
<svg version="1.1" id="Layer_1" xmlns="http://www.w3.org/2000/svg" xmlns:xlink="http://www.w3.org/1999/xlink" x="0px" y="0px"
	 width="864px" height="576px" viewBox="72 0 864 576" enable-background="new 72 0 864 576" xml:space="preserve">
<g id="Layer_1_2_">
	
		<g id="Layer_1_1_" xmlns:rdf="http://www.w3.org/1999/02/22-rdf-syntax-ns#" xmlns:dc="http://purl.org/dc/elements/1.1/" xmlns:cc="http://creativecommons.org/ns#">
		<title>Stream 3D: river valley and water table</title>
		<desc  xmlns:ian_image_library="http://ian.umces.edu/imagelibrary/">
			<ian_image_library:title>Stream 3D: river valley and water table</ian_image_library:title>
			<ian_image_library:descr>Illustration of a stream with river valley and water table</ian_image_library:descr>
			<ian_image_library:scene>
				<ian_image_library:contains>
					symbol,vector,illustration,diagram,template,base,ecosystem,aquatic,freshwater river,valley,water,table,stream,springs
					</ian_image_library:contains>
				<ian_image_library:when>2008-11-07</ian_image_library:when>
			</ian_image_library:scene>
		</desc>
		
			<linearGradient id="SVGID_1_" gradientUnits="userSpaceOnUse" x1="-270.9009" y1="552.3164" x2="-270.9009" y2="690.0098" gradientTransform="matrix(1 0 0 -1 540 847)">
			<stop  offset="0.3153" style="stop-color:#42210B"/>
			<stop  offset="1" style="stop-color:#0071BC"/>
		</linearGradient>
		<polygon fill="url(#SVGID_1_)" stroke="#54FF71" stroke-width="0.5" points="457.038,294.684 81.161,259.31 81.161,156.989 
			457.038,192.36 		"/>
		
			<linearGradient id="SVGID_2_" gradientUnits="userSpaceOnUse" x1="-1258.812" y1="464.3604" x2="-1258.812" y2="306.5479" gradientTransform="matrix(1 0 0 -1 1620 528)">
			<stop  offset="0" style="stop-color:#53A6CB"/>
			<stop  offset="1" style="stop-color:#77B7D4"/>
		</linearGradient>
		<path fill="url(#SVGID_2_)" d="M480.534,93.867c0,0-57.423,35.54-59.633,35.827c-2.211,0.286-5.152-1.406-5.152-1.406
			c0.03-0.023-6.17,1.408-5.955,1.406c-2.945,0.02-5.588-1.406-5.588-1.406s-1.404,1.119-3.613,1.406
			c-2.209,0.286-3.979-1.406-3.979-1.406s-3.313,1.119-4.783,1.406c-1.473,0.286-4.854-1.406-4.854-1.406s-2.944,1.384-4.784,1.406
			c-1.841,0.02-4.048-1.406-4.048-1.406s-1.771,1.119-3.979,1.406c-2.207,0.286-4.353-1.406-4.353-1.406s-3.377,1.119-5.584,1.406
			c-0.239,0.032-0.479,0.034-0.721,0.023L264.644,63.64l-71.011,47.632l73.283,94.131c0,0,4.582,16.726,16.808,16.028
			c12.225-0.702,18.938-12.541,18.938-12.541l159.446-54.658l66.636-68.596C528.406,85.41,480.534,93.867,480.534,93.867z"/>
		<path fill="none" stroke="#0083B7" stroke-width="0.5" d="M480.534,93.867c0,0-57.423,35.54-59.633,35.827
			c-2.211,0.286-5.152-1.406-5.152-1.406c0.03-0.023-6.17,1.408-5.955,1.406c-2.945,0.02-5.588-1.406-5.588-1.406
			s-1.404,1.119-3.613,1.406c-2.209,0.286-3.979-1.406-3.979-1.406s-3.313,1.119-4.783,1.406c-1.473,0.286-4.854-1.406-4.854-1.406
			s-2.944,1.384-4.784,1.406c-1.841,0.02-4.048-1.406-4.048-1.406s-1.771,1.119-3.979,1.406c-2.207,0.286-4.353-1.406-4.353-1.406
			s-3.377,1.119-5.584,1.406c-0.239,0.032-0.479,0.034-0.721,0.023L264.644,63.64l-71.011,47.632l73.283,94.131
			c0,0,4.582,16.726,16.808,16.028c12.225-0.702,18.938-12.541,18.938-12.541l159.446-54.658l66.636-68.596
			C528.406,85.41,480.534,93.867,480.534,93.867z"/>
		<path fill="none" stroke="#0083B7" stroke-width="0.5" d="M306.416,208.16c-0.341-0.226-0.528-0.397-0.528-0.397
			s-2.574,1.119-4.784,1.404c-2.21,0.286-5.154-1.404-5.154-1.404s-1.838,1.385-4.783,1.404c-2.943,0.021-4.416-1.404-4.416-1.404
			s-2.578,1.119-4.784,1.404c-2.208,0.286-5.152-1.404-5.152-1.404s-3.314,1.119-4.784,1.404c-1.472,0.286-3.681-1.404-3.681-1.404"
			/>
		<path fill="#52260F" stroke="#967D5F" stroke-width="0.5" d="M267.604,207.709c0,0-58.847-13.92-80.162-16.377
			s-44.333-14.548-60.186-17.298c-15.854-2.747-46.097-9.053-46.097-9.053V50.869c0,0,44.737,22.861,54.774,33.23
			c10.033,10.367,25.366,38.003,37.141,42.943c11.773,4.937,24.729,19.518,34.814,29.079c10.084,9.563,17.804,23.567,27.625,29.61
			C245.336,191.773,267.604,207.709,267.604,207.709z"/>
		<path fill="none" stroke="#0083B7" stroke-width="0.5" stroke-dasharray="3.5278,3.5278" d="M267.604,207.709
			c0,0-58.847-13.92-80.162-16.377s-44.333-14.548-60.186-17.298c-15.854-2.747-46.097-9.053-46.097-9.053"/>
		
			<radialGradient id="SVGID_3_" cx="-1402.647" cy="421.7041" r="126.2995" gradientTransform="matrix(0.9936 0 0 -1 1620.9229 528)" gradientUnits="userSpaceOnUse">
			<stop  offset="0.0056" style="stop-color:#9EB37E"/>
			<stop  offset="1" style="stop-color:#859960"/>
		</radialGradient>
		<path fill="url(#SVGID_3_)" stroke="#879B63" stroke-width="0.5" d="M201.832,4.884c0,0,23.649,14.607,33.684,24.974
			c10.035,10.37,17.167,20.317,28.942,25.256c11.775,4.939,50.504,28.953,60.586,38.515c9.521,9.026,37.168,29.118,47.543,35.504
			c5.362,3.299-18.479,1.66-46.545,21.973c-2.697,1.954-7.229,14.748-11.26,15.903c-7.134,0.666-9.631-3.517-9.749-6.803
			c-0.141-3.893,4.383-9.022,2.143-14.719c-1.792-4.552-11.515-11.82-12.66-15.568c-1.143-3.749,5.691-11.588,1.904-15.294
			c-3.788-3.705-7.417-4.255-9.312-9.394c-0.632-1.706,3.432-4.404,4.04-6.26c0.611-1.865-0.129-3.217-1.068-4.032
			c-0.692-0.604-1.013-0.373-4.08-1.275c-3.067-0.902-2.771-2.289-4.869-1.413c-2.89,1.206,4.319,2.681,5.624,3.117
			c1.563,0.521,3.255,0.814,3.388,1.191c0.223,0.621,0.248,1.407-0.107,2.413c-0.498,1.412-4.636,3.823-4.354,5.582
			c0.191,1.193,0.682,2.328,1.355,3.396c0.072,0.116-5.512-2.8-11.841-2.978c-0.136-0.003,1.478-4.936-0.335-7.12
			c-1.486-1.786-5.257-1.739-5.619-4.249c-0.235-1.631,1.703-3.346,2.565-5.055c1.17-2.321,0.173-3.455-0.584-5.525
			c-0.873-2.383-6.3-1.172-6.78-3.235c-0.326-1.397-0.169-2.674,0.193-3.769c0.79-2.39,3.9-5.942,2.499-6.153
			c-1.402-0.212-2.729,4.82-3.151,5.536c-0.743,1.256-1.274,2.809-1.072,4.545c0.334,2.841,6.999,2.631,7.966,5.932
			c0.75,2.565-4.835,5.462-4.83,8.235c0.007,2.995,5.817,3.486,6.918,5.615c1.135,2.187-0.097,4.79-0.238,4.83
			c-2.791,0.755-7.831,2.861-10.027,2.038c-3.047-1.142,2.979-7.778,0.079-8.797c-2.637-0.926-5.304,0.234-7.297-0.694
			c-1.442-0.675-2.994-0.729-3.438-1.801c-0.39-0.941,6.655-5.026,6.524-6.13c-0.132-1.104-1.869-0.062-3.085,0.807
			s-4.464,2.734-4.736,3.972c-0.274,1.236-0.079,2.699,1.879,3.716c2.267,1.179,5.186,0.09,8.396,1.369
			c3.124,1.245-2.849,7.367,0.49,8.776c3.391,1.433,9.015-1.233,13.405-0.689c8.283,1.022,15.16,4.407,15.394,4.627
			c2.894,2.707,4.898,4.718,5.021,5.821c-0.529,4.92-3.127,9.027-3.75,11.423c0.627,2.314,2.17,4.487,3.992,6.538
			c0.051,0.058-3.317-2.592-7.252-0.902c-3.007,1.292-8.416-0.67-10.771-0.869c-3.71,0,0.617-6.416-6.792-6.25
			c-6.158,0.717-10.588,3.5-15.687,4.28c-5.1,0.782-2.268-6.822-7.952-7.844c-0.708-0.129-2.011,0.063-3.625,0.321
			c-0.351,0.057-5.82,0.701-5.512-1.625c0.161-1.22,1.914-3.512,3.769-5.753c0.857-1.034,2.617-4.715,4.225-5.986
			c1.871-1.479,3.536-0.533,3.329-1.341c-0.215-0.843-2.496-1.06-4.454,0.2c-1.528,0.983-2.859,3.325-2.854,3.96
			c0.008,1.086-4.901,5.869-5.248,7.128c-1.038,3.774,1.507,4.126,1.247,4.144c-1.74,0.125-3.503,0.106-5.093-0.239
			c-3.611-0.78-6.449-4.316-9.704-5.354c-4.548-1.45-8.023,2.719-9.761,1.677c-1.737-1.042,4.855-4.316,3.209-5.199
			c-1.646-0.882-4.214,2.562-4.214,2.562s-2.658,4.673,1.857,4.361c4.517-0.312,4.186-2.801,7.847-2.537
			c2.956,0.215,6.372,5.561,9.707,6.333c6.941,1.607,13.533-0.878,14.905-0.471c2.852,0.845,1.501,7.033,6.999,7.298
			c5.496,0.267,11.203-3.528,17.413-3.942c3.919-0.256-0.141,6.086,3.296,6.273c4.324,0.234,9.535,2.634,13.254,1.735
			c5.28-1.278,11.49,1.789,11.651,1.949c2.539,2.518,4.823,4.839,5.361,6.999c1.207,4.862-1.859,11.162-2.767,14.575
			c-0.907,3.414,7.019,8.428,6.64,11.088c-0.38,2.664-4.186,5.371-6.871,8.091c-13.214,13.383-34.122,27.51-34.122,27.51
			s-22.267-15.936-32.089-21.978c-9.821-6.043-17.541-20.047-27.625-29.61c-10.085-9.562-23.041-24.143-34.815-29.079
			c-11.775-4.939-27.108-32.576-37.141-42.943C125.896,73.73,81.161,50.869,81.161,50.869L201.832,4.884z"/>
		<path fill="none" stroke="#0083B7" stroke-width="0.5" d="M373.256,129.701c1.699,2.612-20.896,2.362-47.213,21.406
			c-2.697,1.954-7.229,14.748-11.26,15.902c-7.133,0.666-9.631-3.516-9.749-6.803c-0.141-3.892,4.383-9.021,2.143-14.718
			c-1.792-4.552-11.515-11.82-12.66-15.568c-1.143-3.749,5.691-11.588,1.904-15.294c-3.788-3.705-7.417-4.255-9.311-9.394
			c-0.633-1.706,3.431-4.404,4.04-6.26c0.61-1.865-0.13-3.217-1.069-4.032c-0.692-0.604-1.013-0.373-4.08-1.275
			c-3.067-0.902-2.771-2.289-4.869-1.413c-2.89,1.206,4.319,2.681,5.624,3.117c1.563,0.521,3.255,0.814,3.388,1.191
			c0.223,0.621,0.248,1.407-0.107,2.413c-0.498,1.412-4.635,3.823-4.354,5.582c0.191,1.193,0.682,2.328,1.355,3.397
			c0.073,0.116-5.512-2.8-11.841-2.978c-0.136-0.003,1.478-4.935-0.335-7.12c-1.486-1.786-5.257-1.739-5.619-4.249
			c-0.235-1.631,1.703-3.346,2.565-5.055c1.17-2.321,0.173-3.455-0.584-5.525c-0.873-2.383-6.3-1.172-6.78-3.235
			c-0.326-1.397-0.169-2.674,0.193-3.769c0.79-2.39,3.9-5.942,2.499-6.153c-1.402-0.212-2.729,4.82-3.151,5.536
			c-0.743,1.256-1.274,2.809-1.072,4.545c0.334,2.841,6.999,2.631,7.966,5.932c0.75,2.565-4.835,5.462-4.83,8.235
			c0.007,2.995,5.817,3.486,6.918,5.615c1.135,2.187-0.097,4.79-0.238,4.83c-2.791,0.755-7.831,2.861-10.027,2.038
			c-3.047-1.142,2.979-7.778,0.079-8.797c-2.637-0.926-5.304,0.234-7.297-0.694c-1.442-0.675-2.994-0.729-3.438-1.801
			c-0.39-0.941,6.655-5.026,6.524-6.13c-0.132-1.104-1.869-0.063-3.085,0.807c-1.216,0.869-4.464,2.734-4.736,3.972
			c-0.274,1.236-0.079,2.699,1.879,3.716c2.267,1.179,5.186,0.09,8.396,1.369c3.124,1.245-2.849,7.367,0.49,8.776
			c3.391,1.433,9.015-1.233,13.405-0.689c8.283,1.022,15.16,4.407,15.395,4.627c2.893,2.707,4.897,4.718,5.021,5.821
			c-0.529,4.92-3.127,9.027-3.75,11.423c0.627,2.314,2.17,4.487,3.992,6.538c0.051,0.058-3.317-2.592-7.252-0.902
			c-3.007,1.292-8.416-0.67-10.771-0.869c-3.71,0,0.617-6.416-6.792-6.25c-6.158,0.717-10.588,3.5-15.687,4.28
			c-5.1,0.782-2.269-6.822-7.952-7.844c-0.708-0.129-2.011,0.063-3.625,0.321c-0.351,0.057-5.82,0.701-5.512-1.625
			c0.161-1.22,1.914-3.512,3.769-5.753c0.857-1.034,2.617-4.715,4.225-5.986c1.871-1.479,3.536-0.533,3.329-1.341
			c-0.215-0.843-2.496-1.06-4.454,0.2c-1.528,0.983-2.859,3.325-2.854,3.96c0.008,1.086-4.901,5.869-5.248,7.128
			c-1.038,3.774,1.507,4.126,1.247,4.144c-1.74,0.125-3.503,0.106-5.093-0.239c-3.611-0.78-6.449-4.316-9.704-5.354
			c-4.548-1.45-8.023,2.719-9.761,1.677c-1.737-1.042,4.855-4.316,3.209-5.199c-1.646-0.882-4.214,2.562-4.214,2.562
			s-2.658,4.673,1.857,4.361c4.517-0.311,4.186-2.801,7.847-2.537c2.956,0.215,6.372,5.561,9.707,6.333
			c6.941,1.607,13.533-0.878,14.905-0.471c2.852,0.845,1.501,7.033,6.999,7.298c5.496,0.267,11.203-3.528,17.413-3.942
			c3.919-0.256-0.141,6.086,3.296,6.273c4.324,0.234,9.535,2.634,13.254,1.735c5.28-1.278,11.49,1.789,11.651,1.949
			c2.539,2.518,4.823,4.839,5.361,6.999c1.207,4.862-1.859,11.162-2.767,14.575c-0.907,3.414,7.02,8.428,6.64,11.088
			c-0.38,2.664-4.186,5.371-6.87,8.091c-13.215,13.382-34.123,27.511-34.123,27.511"/>
		
			<linearGradient id="SVGID_4_" gradientUnits="userSpaceOnUse" x1="-1823.0547" y1="237.0254" x2="-1794.6776" y2="443.5272" gradientTransform="matrix(-0.3333 0 0 -1 -84.5074 528)">
			<stop  offset="0.3153" style="stop-color:#42210B"/>
			<stop  offset="1" style="stop-color:#0071BC"/>
		</linearGradient>
		<polygon fill="url(#SVGID_4_)" stroke="#967D5F" stroke-width="0.5" points="455.866,294.684 581.16,200.354 581.16,86.241 
			455.866,180.57 		"/>
		<path fill="#52260F" stroke="#967D5F" stroke-width="0.5" d="M328.608,190.643c12.928-1.771,19.399-9.586,27.598-12.924
			c8.193-3.338,16.348-4.438,25.135-6.063c8.785-1.624,11.922-0.716,23.932-1.168c12.009-0.456,15.015-6.507,25.658-12.179
			c10.646-5.671,24.938-4.858,24.938-4.858v42.188c0,0-25.732,1.277-44.309-1.577c-18.575-2.854-43.603,3.132-51.896,2.584
			c-8.295-0.547-17.539-0.283-33.816,5.219c-15.208,5.144-22.287,6.476-22.287,6.476S315.683,192.412,328.608,190.643z"/>
		<path fill="none" stroke="#0083B7" stroke-width="0.5" stroke-dasharray="3.5278,3.5278" d="M455.866,195.639
			c0,0-25.732,1.276-44.309-1.577c-18.576-2.854-43.603,3.132-51.896,2.584c-8.295-0.547-17.539-0.283-33.816,5.219
			c-15.208,5.143-22.287,6.475-22.287,6.475"/>
		<path fill="#291308" stroke="#967D5F" stroke-width="0.5" d="M455.866,195.639c0,0,10.247-9.968,20.83-17.257
			c10.586-7.293,13.477-15.313,26.434-27.248c12.953-11.933,41.732-33.517,53.986-38.667c12.254-5.151,24.045-24.128,24.045-24.128
			V60.302c0,0-26.262,15.042-34.148,23.252s-11.432,15.513-22.619,21.281c-11.188,5.771-21.917,15.22-30.957,20.642
			c-9.033,5.42-13.188,13.75-19.752,20.455c-6.563,6.707-17.815,7.519-17.815,7.519L455.866,195.639L455.866,195.639z"/>
		<path fill="none" stroke="#0083B7" stroke-width="0.5" stroke-dasharray="3.5278,3.5278" d="M455.866,195.639
			c0,0,10.247-9.968,20.83-17.257c10.586-7.293,13.477-15.313,26.434-27.248c12.953-11.933,41.732-33.517,53.986-38.667
			c12.254-5.151,24.045-24.128,24.045-24.128"/>
		
			<radialGradient id="SVGID_5_" cx="-1177.8125" cy="393.2109" r="111.3428" gradientTransform="matrix(1 0 0 -1 1620 528)" gradientUnits="userSpaceOnUse">
			<stop  offset="0.0056" style="stop-color:#96AA77"/>
			<stop  offset="1" style="stop-color:#7F9359"/>
		</radialGradient>
		<path fill="url(#SVGID_5_)" stroke="#879B63" stroke-width="0.5" d="M392.731,138.585c0.398,1.577,2.813,1.91,4.313,1.818
			c2.455-0.152,4.299-0.934,6.369-2.174c2.102-1.256,6.557-4.445,9.311-6.339c6.482-4.461,3.527,5.879,9.406,6.663
			c4.65,0.621,7.853-7.081,12.152-10.583c4.303-3.502,5.426,9.9,9.799,7.056c3.903-2.539,5.485-11.368,8.625-12.936
			c3.135-1.567,4.498-4.407,5.967-7.604c0.842-1.832,2.349-3.308,3.832-4.675c0,0,8.861-9.66,16.469-10.867
			c3.222-0.51,6.57-0.389,9.793-0.852c4.086-0.585,4.996,2.418,7.146-0.696c2.625-3.809,6.297-6.117,10.886-6.666
			c1.732-0.207,2.994-0.286,4.705-0.086c1.861,0.218,3.443,0.88,0.785,1.645c-3.283,0.942-6.59,0.767-9.8,2.08
			c-3.136,1.282-4.189,4.233-6.285,6.448c-2.104,2.224-4.021-1.52-7.051-0.666c-2.857,0.804-5.935-0.89-8.226,1.557
			c0.129,1.538,1.886,2.211,2.83,2.65c1.633,0.755,0.89,1.757,1.461,3.25c1.039,2.719,4.09,2.215,5.922,4.293
			c1.06,1.2,1.359,2.223,0.859,3.614c-0.574,1.596-1.771,2.026-1.988-0.087c-0.139-1.355,0.685-1.806-0.746-2.85
			c-0.959-0.702-2.096-0.475-3.241-0.756c-3.334-0.819-1.379-4.096-3.604-5.714c-1.291-0.939-2.588,0.043-3.457-1.276
			c-0.572-0.868-0.158-2.032-1.246-2.652c-2.715-1.553-2.657,1.005-4.231,1.881c-3.527,1.959-8.437,5.921-9.318,6.771
			c-1.348,1.289-2.689,2.867-3.717,4.347c-1.793,2.588-0.887,5.131-3.43,7.306c0.731,1.78,3.526,5.879,7.065,3.807
			c2.342-1.455,2.198-2.642,3.496-3.021c2.28-0.666,3.799-0.277,5.51,1.174c1.488,1.261,0.504,6.41-0.784,6.664
			c-1.82,0.358-0.484-4.098-1.959-5.487c-1.308-1.23-3.136,3.919-8.23,3.919s-4.83-3.729-7.84-4.704
			c-1.303-0.421-7.047,12.016-10.978,14.895c-3.93,2.878-4.702-10.768-9.017-7.447c-4.313,3.321-3.92,8.624-12.543,9.407
			c-8.623,0.784-4.313-12.935-12.088-3.894l1.896,1.15c2.049,0.512,2.736,1.281,4.313,2.744c1.668,1.55,1.267,3.756,2.047,5.794
			c1.496,3.902,4.787,4.125,8.547,2.743c2.658-0.978,5.119-3.225,7.83-4.225c2.938-1.083,6.666-3.136,9.408-2.353
			c2.741,0.784,3.146,0.206,5.387,2.461c0.83,0.832,2.636,3.401,1.392,4.699c-1.133,1.185-2.133-1.59-2.957-2.447
			c-2.851-2.96-3.045-3.325-6.971-2.043c-2.841,0.926-5.451,1.702-8.117,3.125c-2.041,1.088-4.013,2.663-6.283,3.327
			c-4.09,1.195-7.225,1.563-9.995-2.069c-1.449-1.9-1.343-4.515-2.539-6.573c-0.529-0.91-1.134-2.285-2.113-2.781
			c-0.981-0.495-4.254-2.01-4.254-2.01c-3.92,2.352-8.412,3.698-11.367,4.704c-1.602,0.545-6.635-0.038-6.271-3.274l-0.108-0.276
			c-14.282,5.762-22.196,5.306-34.45,12.156c-11.313,6.325-12.224,17.383-22.968,27.571c-3.427,3.249-17.249,11.02-22.759,16.346
			c-8.271,7.987-5.749,12.24-5.749,12.24s11.042-11.212,24.069-12.979c13.024-1.769,20.719-14.3,28.979-17.639
			c8.26-3.34,16.475-4.439,25.328-6.063c8.854-1.625,12.016-0.717,24.113-1.172c12.102-0.453,15.131-6.506,25.855-12.178
			c10.729-5.669,25.13-4.859,25.13-4.859s10.079-0.81,16.646-7.516c6.563-6.707,10.719-15.035,19.754-20.458
			c9.039-5.42,19.767-14.87,30.957-20.64c11.188-5.771,14.732-13.073,22.619-21.281c7.887-8.211,34.148-23.253,34.148-23.253
			s-35.328,1.615-69.799,13.941c-23.023,8.233-44.861,22.56-61.525,31.826c-7.021,3.906-24.182,7.323-36.559,18.029
			c-6.582,5.692-10.609,9.9-17.864,13.328L392.731,138.585z"/>
		<path fill="none" stroke="#0083B7" stroke-width="0.5" d="M407.606,129.552c-3.786,3.293-7.235,5.999-12.188,8.34l-2.687,0.692
			c0.398,1.577,2.813,1.91,4.313,1.818c2.455-0.152,4.299-0.934,6.369-2.174c2.102-1.256,6.557-4.445,9.311-6.339
			c6.482-4.461,3.527,5.879,9.406,6.663c4.65,0.621,7.853-7.081,12.152-10.583c4.303-3.502,5.426,9.9,9.799,7.056
			c3.903-2.539,5.485-11.368,8.625-12.936c3.135-1.567,4.498-4.407,5.967-7.604c0.842-1.832,2.349-3.308,3.832-4.675
			c0,0,8.861-9.66,16.469-10.867c3.222-0.51,6.57-0.389,9.793-0.852c4.086-0.585,4.996,2.418,7.146-0.696
			c2.625-3.809,6.297-6.117,10.886-6.666c1.732-0.207,2.994-0.286,4.705-0.086c1.861,0.218,3.443,0.88,0.785,1.645
			c-3.283,0.942-6.59,0.767-9.8,2.08c-3.136,1.282-4.189,4.233-6.285,6.448c-2.104,2.224-4.021-1.52-7.051-0.666
			c-2.857,0.804-5.935-0.89-8.226,1.557c0.129,1.538,1.886,2.211,2.83,2.65c1.633,0.755,0.89,1.757,1.461,3.25
			c1.039,2.719,4.09,2.215,5.922,4.293c1.06,1.2,1.359,2.223,0.859,3.614c-0.574,1.596-1.771,2.026-1.988-0.087
			c-0.139-1.355,0.685-1.806-0.746-2.85c-0.959-0.702-2.096-0.475-3.241-0.756c-3.334-0.819-1.379-4.096-3.604-5.714
			c-1.291-0.939-2.588,0.043-3.457-1.276c-0.572-0.868-0.158-2.032-1.246-2.652c-2.715-1.553-2.657,1.005-4.231,1.881
			c-3.527,1.959-8.437,5.921-9.318,6.771c-1.348,1.289-2.689,2.867-3.717,4.347c-1.793,2.588-0.887,5.131-3.43,7.306
			c0.731,1.78,3.526,5.879,7.065,3.807c2.342-1.455,2.198-2.642,3.496-3.021c2.28-0.666,3.799-0.277,5.51,1.174
			c1.488,1.261,0.504,6.41-0.784,6.664c-1.82,0.358-0.484-4.098-1.959-5.487c-1.308-1.229-3.136,3.919-8.23,3.919
			s-4.83-3.729-7.84-4.704c-1.303-0.421-7.047,12.016-10.978,14.895c-3.93,2.878-4.702-10.768-9.017-7.447
			c-4.313,3.321-3.92,8.624-12.543,9.407c-8.623,0.784-4.313-12.935-12.088-3.894l1.896,1.15c2.049,0.512,2.736,1.281,4.313,2.744
			c1.668,1.55,1.267,3.756,2.047,5.794c1.496,3.902,4.787,4.125,8.547,2.743c2.658-0.978,5.119-3.225,7.83-4.225
			c2.938-1.083,6.666-3.136,9.408-2.353c2.741,0.784,3.146,0.206,5.387,2.461c0.83,0.832,2.636,3.401,1.392,4.699
			c-1.133,1.184-2.133-1.59-2.957-2.447c-2.851-2.96-3.045-3.325-6.971-2.043c-2.841,0.926-5.451,1.702-8.117,3.125
			c-2.041,1.088-4.013,2.663-6.283,3.327c-4.09,1.194-7.225,1.563-9.995-2.069c-1.449-1.9-1.343-4.515-2.539-6.573
			c-0.529-0.91-1.134-2.285-2.113-2.781c-0.981-0.495-4.254-2.01-4.254-2.01c-3.92,2.352-8.412,3.698-11.367,4.704
			c-1.602,0.545-6.635-0.038-6.271-3.274l-0.108-0.276c-14.282,5.762-22.196,5.306-34.45,12.156
			c-11.313,6.325-12.224,17.383-22.968,27.571c-3.427,3.248-17.249,11.02-22.759,16.346c-8.271,7.987-5.749,12.24-5.749,12.24"/>
	</g>
	<g id="Layer_2">
		<polygon fill="#BF2026" stroke="#872A0E" stroke-width="0.5" points="376.715,113.731 384.108,131.789 391.5,113.731 		"/>
		<polygon fill="#3A45C1" stroke="#3E52A4" stroke-width="0.5" points="276.986,191.461 284.38,209.52 291.776,191.461 		"/>
		<text transform="matrix(1 0 0 1 365.3462 106.2969)" fill="#BF2026" font-family="'ArialMT'" font-size="27">US</text>
		
			<text transform="matrix(1 0 0 1 365.3462 106.2969)" fill="none" stroke="#872A0E" stroke-width="0.5" font-family="'ArialMT'" font-size="27">US</text>
		<text transform="matrix(1 0 0 1 267.604 184.1074)" fill="#3A45C1" font-family="'ArialMT'" font-size="27">DS</text>
		
			<text transform="matrix(1 0 0 1 267.604 184.1074)" fill="none" stroke="#3E52A4" stroke-width="0.5" font-family="'ArialMT'" font-size="27">DS</text>
	</g>
	
		<image overflow="visible" enable-background="new    " width="6000" height="4000" xlink:href="DSC_0067.jpg"  transform="matrix(0.0625 0 0 0.0625 81.1611 302.0361)">
	</image>
	<g>
		<g>
			<line fill="none" stroke="#000000" stroke-width="2" x1="84.578" y1="299.683" x2="85.503" y2="299.22"/>
			
				<line fill="none" stroke="#000000" stroke-width="2" stroke-dasharray="4.0404,4.0404" x1="87.371" y1="298.278" x2="265.746" y2="208.642"/>
			<line fill="none" stroke="#000000" stroke-width="2" x1="266.679" y1="208.172" x2="267.604" y2="207.709"/>
		</g>
	</g>
	<g>
		<g>
			<line fill="none" stroke="#000000" stroke-width="2" x1="456.156" y1="302.203" x2="452.012" y2="299.683"/>
			
				<line fill="none" stroke="#000000" stroke-width="2" stroke-dasharray="4.1242,4.1242" x1="443.472" y1="294.491" x2="311.076" y2="214.003"/>
			<line fill="none" stroke="#000000" stroke-width="2" x1="306.803" y1="211.41" x2="302.662" y2="208.89"/>
		</g>
	</g>
</g>
<g id="Soils">
	<line fill="none" stroke="#009245" stroke-width="2" x1="459.769" y1="156.989" x2="469.102" y2="156.989"/>
	<line fill="none" stroke="#009245" stroke-width="2" x1="469.102" y1="156.989" x2="469.102" y2="193.287"/>
	<line fill="none" stroke="#009245" stroke-width="2" x1="469.102" y1="193.287" x2="459.769" y2="193.287"/>
	<line fill="none" stroke="#009245" stroke-width="2" x1="469.102" y1="175.138" x2="487.769" y2="175.138"/>
	<line fill="none" stroke="#009245" stroke-width="2" x1="487.769" y1="175.138" x2="487.769" y2="359.62"/>
	<line fill="none" stroke="#009245" stroke-width="2" x1="487.769" y1="359.62" x2="509.34" y2="359.62"/>
</g>
</svg>
